<svg width="227" height="80" viewBox="0 0 227 80" fill="none" xmlns="http://www.w3.org/2000/svg">
<path d="M15.0342 67.8994L13.876 69.0576C14.7085 69.1897 15.5687 69.2819 16.4628 69.328L15.0342 67.8994ZM24.3552 67.8994L23.2431 69.0115C23.8851 68.9194 24.5149 68.8149 25.1478 68.692L24.3552 67.8994Z" fill="#0E0E0E"/>
<path d="M71.7637 0.833008L68.7617 9.76367L49.9971 17.2168C51.3611 18.7406 52.5136 20.0436 53.4629 21.125C54.409 22.2094 55.5552 23.5146 56.8945 25.0352L65.1494 34.4609C66.074 35.3886 66.8754 36.0772 67.542 36.5195C68.2148 36.9619 68.965 37.2755 69.8037 37.4629C70.6403 37.6472 93.4534 37.7422 95.2012 37.7422H95.2314C97.5663 37.7422 99.5209 37.5392 101.091 37.1367C102.664 36.7343 104.107 35.9663 105.419 34.8359C106.722 33.7023 107.936 32.0614 109.048 29.917L111.616 30.8145C111.241 32.5256 110.765 34.1324 110.178 35.6377C110.672 35.9203 111.189 36.169 111.724 36.3779C113.174 36.9585 114.593 37.2471 115.976 37.2471C117.769 37.247 119.284 36.6328 120.519 35.4072C121.754 34.1814 122.537 32.2854 122.866 29.7324H125.745C125.69 31.6495 125.474 33.4383 125.1 35.1064L135.824 37.0908C135.747 36.7346 135.665 36.3875 135.588 36.0527C135.29 34.7655 134.952 33.4345 134.568 32.0674C134.187 30.6941 133.355 28.3871 132.903 27.0293L138.11 21.8154H139.502C140.531 26.5956 141.047 30.5314 141.047 33.625L141.044 33.6348C141.044 36.418 140.614 38.9278 139.757 41.1611C138.9 43.3977 137.478 45.733 135.478 48.1631L120.501 44.123C119.951 44.6851 119.37 45.1856 118.753 45.6279C116.731 47.0749 114.547 47.7939 112.196 47.7939C110.427 47.7939 108.678 47.3516 106.958 46.4668C106.03 45.9876 105.128 45.3514 104.249 44.5527C103.527 45.1948 102.762 45.767 101.951 46.2646C99.8959 47.5365 97.6525 48.2576 95.2285 48.4297C94.8384 48.4604 94.4511 48.4766 94.0518 48.4766H72.0371C70.7008 48.4766 69.4378 48.1663 68.252 47.5488C67.0661 46.9313 65.9136 46.0739 64.7861 44.9863C63.6648 43.8926 62.215 42.338 60.4424 40.3135H59.791C59.4624 41.8585 59.1279 43.1333 58.79 44.1348C58.446 45.1331 58.0062 46.3346 57.4717 47.7354C55.5362 47.9811 53.9078 48.1627 52.5898 48.2764C51.2719 48.39 49.9443 48.4516 48.6172 48.4639C47.287 48.4731 45.4192 48.4766 43.0078 48.4766H40.8691C40.2026 48.4766 39.5634 48.4668 38.9521 48.4453V48.7559C39.5511 49.2903 40.0341 49.8983 40.3936 50.5771C40.7499 51.2592 40.9336 51.8373 40.9336 52.3135C40.8936 53.444 40.6979 54.5869 40.3477 55.7451C39.9944 56.8972 39.4994 58.28 38.8604 59.8867C38.4088 60.9158 38.028 61.8036 37.7178 62.5439C36.7531 63.822 35.2567 64.9769 33.2383 66.0215C31.2168 67.0599 28.8727 67.8804 26.2061 68.4795C25.8543 68.556 25.4993 68.634 25.1445 68.6953L30.0762 73.627L24.6328 79.04L20.0029 74.3828L15.3486 79.04L9.61914 73.3164L15.0273 67.9082L15.0234 67.9043L13.8652 69.0625C11.9758 68.7645 10.2276 68.2423 8.62695 67.502C5.9267 66.2578 3.81282 64.3535 2.28906 61.8008C0.765299 59.2417 3.91263e-05 56.0585 0 52.2461C0 49.7945 0.36316 47.2905 1.08203 44.7314C1.80399 42.1785 2.87543 39.5265 4.29785 36.7861L6.64551 37.0967C6.11098 38.7679 5.70214 40.3716 5.42871 41.9199C5.14914 43.4622 5.00781 44.885 5.00781 46.1846C5.00784 49.1123 5.56117 51.5332 6.66406 53.4502C7.76697 55.3672 9.33053 56.7805 11.3643 57.7021C13.3919 58.6177 15.8222 59.0752 18.6455 59.0752C20.9097 59.0752 23.2906 58.8879 25.7852 58.5039C28.2798 58.123 30.4981 57.6342 32.4336 57.0352C34.3685 56.4393 35.6586 55.8312 36.3008 55.2139C35.3484 54.1786 34.0464 53.1274 32.3906 52.043C30.7286 50.9616 28.593 49.7731 25.9756 48.4736C25.0478 48.0374 24.1632 47.6158 23.3184 47.2041C22.4704 46.7924 21.7944 46.4637 21.2783 46.2148C21.3184 45.3482 22.298 42.8136 24.2148 38.6113C24.3807 38.1997 24.504 37.8894 24.5869 37.6836C24.6699 37.4778 24.8019 37.1794 24.9893 36.7861C27.6068 37.0964 30.5227 37.3362 33.7393 37.499C36.9526 37.6649 39.7144 37.7451 42.0215 37.7451V37.8369L42.0859 37.7451H44.7129C46.6482 37.7635 48.3317 37.7548 49.751 37.7148C51.1733 37.6749 52.4915 37.555 53.708 37.3584C54.9246 37.1618 56.129 36.8354 57.3271 36.3838C56.3749 35.2534 55.6656 34.4023 55.1895 33.834C54.7194 33.2656 54.2426 32.7034 53.7695 32.1504C53.2933 31.5913 52.5711 30.7497 51.6035 29.6162C50.2395 27.988 48.863 26.3598 47.459 24.7285L41.8066 18.501L44.4639 12.3623L70.3408 0L71.7637 0.833008ZM23.2354 69.0166C21.5088 69.2532 19.754 69.373 17.9629 69.373C17.4535 69.373 16.9532 69.3603 16.4619 69.333L19.6953 72.5674V72.5645L19.6963 72.5654L23.2412 69.0156L24.3496 67.9062L24.3477 67.9043L23.2354 69.0166ZM151.609 0.923828L151.947 36.3555C151.947 38.1035 151.781 39.9375 151.452 41.8545C151.123 43.7715 150.441 46.0269 149.412 48.626L146.785 48.5029L144.811 8.06641L149.94 0.923828H151.609ZM136.299 17.6689L130.854 23.082L126.286 18.4854L121.666 23.082L117.036 18.4238L112.376 23.082L106.652 17.3525L112.062 11.9424L116.723 16.6025L121.387 11.9424L125.979 16.5381L130.575 11.9424L136.299 17.6689Z" fill="#0E0E0E"/>
<path d="M55.5951 62.3381H51.8317L51.1497 64.2705H49.6074L52.8916 55.4902H54.5475L57.8194 64.2705H56.2771L55.5951 62.3381ZM55.1927 61.226L53.7149 57.057L52.2372 61.226H55.1927Z" fill="#0E0E0E"/>
<path d="M81.893 56.0933C82.618 56.6494 83.1065 57.4021 83.3584 58.3544H81.8315C81.6195 57.8168 81.2847 57.3867 80.8269 57.0733C80.3661 56.7569 79.807 56.6002 79.1403 56.6002C78.6088 56.6002 78.1357 56.7292 77.7179 56.9904C77.3001 57.2515 76.9713 57.6233 76.7317 58.1087C76.4921 58.5941 76.3723 59.1593 76.3723 59.8076C76.3723 60.4558 76.4921 61.0088 76.7317 61.4942C76.9713 61.9796 77.3001 62.3513 77.7179 62.6125C78.1357 62.8736 78.6088 63.0026 79.1403 63.0026C79.807 63.0026 80.3661 62.846 80.8269 62.5295C81.2847 62.2131 81.6195 61.7891 81.8315 61.2607H83.3584C83.1065 62.2131 82.618 62.9627 81.893 63.5157C81.1679 64.0687 80.2586 64.3421 79.1649 64.3421C78.3231 64.3421 77.5765 64.1516 76.9283 63.7676C76.2801 63.3836 75.7793 62.849 75.426 62.1639C75.0727 61.4788 74.8945 60.6924 74.8945 59.8076C74.8945 58.9228 75.0727 58.1394 75.426 57.4512C75.7793 56.7661 76.2801 56.2285 76.9283 55.8414C77.5765 55.4543 78.3231 55.2607 79.1649 55.2607C80.2586 55.2607 81.1679 55.5372 81.893 56.0933Z" fill="#0E0E0E"/>
<path d="M108.181 55.3516V64.2701H106.728V60.2671H102.535V64.2701H101.094V55.3516H102.535V59.0904H106.728V55.3516H108.181Z" fill="#0E0E0E"/>
<path d="M129.011 59.7601L132.941 64.2701H131.186L127.663 60.138V64.2701H126.222V55.3516H127.663V59.4314L131.199 55.3516H132.941L129.011 59.7601Z" fill="#0E0E0E"/>
<path d="M151.747 55.3516V64.2701H150.307V55.3516H151.747Z" fill="#0E0E0E"/>
<path d="M220.701 61.9259L207.365 68.7669C205.916 69.5089 204.194 68.4564 204.194 66.8285V60.8697C204.194 59.6658 203.218 58.6928 202.019 58.6928H180.443C174.041 58.6928 168.854 53.5025 168.854 47.0969V12.1047C168.854 5.69913 174.041 0.508789 180.443 0.508789H215.412C221.813 0.508789 227 5.69913 227 12.1047V51.6058C227 55.9557 224.567 59.9384 220.701 61.9259Z" fill="url(#paint0_linear_369_1648)"/>
<path d="M184.016 22.0195L192.477 30.6156L184.482 38.7386L176.021 30.1425L184.02 22.0156L184.016 22.0195ZM197.791 22.0195L206.252 30.6156L198.204 38.7424L189.793 30.1463L197.791 22.0233V22.0195ZM211.369 22.0195L219.83 30.6156L211.782 38.7424L203.371 30.1463L211.369 22.0233V22.0195Z" fill="#F0F4F4"/>
<defs>
<linearGradient id="paint0_linear_369_1648" x1="228.672" y1="77.637" x2="191.716" y2="19.9749" gradientUnits="userSpaceOnUse">
<stop offset="0.01" stop-color="#790013"/>
<stop offset="0.45" stop-color="#AC0019"/>
<stop offset="0.76" stop-color="#CC001E"/>
</linearGradient>
</defs>
</svg>
